<?xml version="1.0" encoding="UTF-8"?>
<!DOCTYPE svg PUBLIC "-//W3C//DTD SVG 1.1//EN" "http://www.w3.org/Graphics/SVG/1.1/DTD/svg11.dtd">
<svg version="1.1" xmlns="http://www.w3.org/2000/svg" xmlns:xlink="http://www.w3.org/1999/xlink" x="0" y="0" width="120" height="44" viewBox="0, 0, 148, 53">
  <g id="Layer_1">
    <path d="M26.5,0 L121.5,0 C136.136,0 148,11.864 148,26.5 L148,26.5 C148,41.136 136.136,53 121.5,53 L26.5,53 C11.864,53 0,41.136 0,26.5 L0,26.5 C0,11.864 11.864,0 26.5,0 z" fill="#006BE6"/>
    <path d="M34.534,24 L36.171,24 C35.685,21.469 33.563,19.73 30.801,19.73 C27.445,19.73 25.074,22.312 25.074,26.455 C25.074,30.597 27.426,33.179 30.903,33.179 C34.023,33.179 36.247,31.102 36.247,27.861 L36.247,26.455 L31.261,26.455 L31.261,27.861 L34.713,27.861 C34.668,30.213 33.121,31.696 30.903,31.696 C28.474,31.696 26.608,29.855 26.608,26.455 C26.608,23.054 28.474,21.213 30.801,21.213 C32.693,21.213 33.978,22.28 34.534,24 z M42.874,33.204 C44.868,33.204 46.326,32.207 46.786,30.724 L45.329,30.315 C44.945,31.338 44.057,31.849 42.874,31.849 C41.104,31.849 39.883,30.705 39.812,28.602 L46.94,28.602 L46.94,27.963 C46.94,24.307 44.766,23.054 42.721,23.054 C40.062,23.054 38.297,25.151 38.297,28.168 C38.297,31.185 40.036,33.204 42.874,33.204 z M39.812,27.298 C39.915,25.771 40.995,24.409 42.721,24.409 C44.357,24.409 45.405,25.636 45.405,27.298 L39.812,27.298 z M53.504,23.182 L51.408,23.182 L51.408,20.83 L49.899,20.83 L49.899,23.182 L48.416,23.182 L48.416,24.46 L49.899,24.46 L49.899,30.597 C49.899,32.31 51.28,33.128 52.558,33.128 C53.121,33.128 53.479,33.026 53.683,32.949 L53.376,31.594 C53.248,31.619 53.044,31.67 52.712,31.67 C52.047,31.67 51.408,31.466 51.408,30.188 L51.408,24.46 L53.504,24.46 L53.504,23.182 z M68.199,23.182 L69.734,23.182 C69.663,21.207 67.841,19.73 65.31,19.73 C62.805,19.73 60.836,21.188 60.836,23.386 C60.836,25.151 62.114,26.199 64.16,26.787 L65.77,27.247 C67.151,27.631 68.378,28.116 68.378,29.42 C68.378,30.852 66.998,31.798 65.182,31.798 C63.623,31.798 62.242,31.108 62.114,29.625 L60.478,29.625 C60.631,31.773 62.37,33.23 65.182,33.23 C68.199,33.23 69.913,31.568 69.913,29.446 C69.913,26.991 67.586,26.199 66.231,25.841 L64.901,25.483 C63.93,25.227 62.37,24.716 62.37,23.31 C62.37,22.057 63.52,21.136 65.259,21.136 C66.844,21.136 68.046,21.891 68.199,23.182 z M76.584,23.182 L74.488,23.182 L74.488,20.83 L72.979,20.83 L72.979,23.182 L71.496,23.182 L71.496,24.46 L72.979,24.46 L72.979,30.597 C72.979,32.31 74.36,33.128 75.638,33.128 C76.201,33.128 76.559,33.026 76.763,32.949 L76.456,31.594 C76.329,31.619 76.124,31.67 75.792,31.67 C75.127,31.67 74.488,31.466 74.488,30.188 L74.488,24.46 L76.584,24.46 L76.584,23.182 z M81.743,33.23 C83.456,33.23 84.351,32.31 84.657,31.67 L84.734,31.67 L84.734,33 L86.243,33 L86.243,26.531 C86.243,23.412 83.865,23.054 82.612,23.054 C81.129,23.054 79.441,23.565 78.674,25.355 L80.106,25.866 C80.439,25.151 81.225,24.383 82.663,24.383 C84.05,24.383 84.734,25.119 84.734,26.378 L84.734,26.429 C84.734,27.158 83.993,27.094 82.203,27.324 C80.381,27.56 78.393,27.963 78.393,30.213 C78.393,32.131 79.876,33.23 81.743,33.23 z M81.973,31.875 C80.771,31.875 79.902,31.338 79.902,30.29 C79.902,29.139 80.95,28.781 82.126,28.628 C82.765,28.551 84.478,28.372 84.734,28.065 L84.734,29.446 C84.734,30.673 83.762,31.875 81.973,31.875 z M88.996,33 L90.504,33 L90.504,26.787 C90.504,25.457 91.553,24.486 92.985,24.486 C93.387,24.486 93.803,24.562 93.905,24.588 L93.905,23.054 C93.732,23.041 93.336,23.028 93.112,23.028 C91.936,23.028 90.914,23.693 90.556,24.665 L90.453,24.665 L90.453,23.182 L88.996,23.182 L88.996,33 z M100.578,23.182 L98.482,23.182 L98.482,20.83 L96.973,20.83 L96.973,23.182 L95.49,23.182 L95.49,24.46 L96.973,24.46 L96.973,30.597 C96.973,32.31 98.354,33.128 99.632,33.128 C100.195,33.128 100.553,33.026 100.757,32.949 L100.45,31.594 C100.323,31.619 100.118,31.67 99.786,31.67 C99.121,31.67 98.482,31.466 98.482,30.188 L98.482,24.46 L100.578,24.46 L100.578,23.182 z M106.858,33.204 C108.853,33.204 110.31,32.207 110.77,30.724 L109.313,30.315 C108.93,31.338 108.041,31.849 106.858,31.849 C105.088,31.849 103.867,30.705 103.797,28.602 L110.924,28.602 L110.924,27.963 C110.924,24.307 108.751,23.054 106.705,23.054 C104.046,23.054 102.282,25.151 102.282,28.168 C102.282,31.185 104.02,33.204 106.858,33.204 z M103.797,27.298 C103.899,25.771 104.979,24.409 106.705,24.409 C108.341,24.409 109.39,25.636 109.39,27.298 L103.797,27.298 z M116.926,33.204 C118.818,33.204 119.457,32.028 119.79,31.491 L119.969,31.491 L119.969,33 L121.426,33 L121.426,19.909 L119.917,19.909 L119.917,24.741 L119.79,24.741 C119.457,24.23 118.869,23.054 116.952,23.054 C114.471,23.054 112.758,25.023 112.758,28.116 C112.758,31.236 114.471,33.204 116.926,33.204 z M117.131,31.849 C115.238,31.849 114.267,30.188 114.267,28.091 C114.267,26.02 115.213,24.409 117.131,24.409 C118.971,24.409 119.943,25.892 119.943,28.091 C119.943,30.315 118.946,31.849 117.131,31.849 z" fill="#FFFFFF"/>
  </g>
</svg>
