<svg width="118" height="118" viewBox="0 0 118 118" fill="none" xmlns="http://www.w3.org/2000/svg">
<path d="M44.5779 4.91667C41.7092 4.91667 38.9579 6.05631 36.9294 8.08482C34.9008 10.1133 33.7613 12.8646 33.7613 15.7333C33.7613 18.6021 34.9008 21.3533 36.9294 23.3819C38.9579 25.4104 41.7092 26.55 44.5779 26.55H55.3946V15.7333C55.3946 12.8646 54.2549 10.1133 52.2263 8.08482C50.1982 6.05631 47.4467 4.91667 44.5779 4.91667Z" fill="#36C5F0"/>
<path d="M44.5769 33.7595H15.7333C12.8645 33.7595 10.1133 34.8991 8.08481 36.9276C6.05629 38.9561 4.91666 41.7074 4.91666 44.5761C4.91666 47.4449 6.05629 50.1962 8.08481 52.2248C10.1133 54.253 12.8645 55.3926 15.7333 55.3926H44.5794C47.4482 55.3926 50.1996 54.253 52.2278 52.2248C54.2564 50.1962 55.3961 47.4449 55.3961 44.5761C55.3961 41.7074 54.2564 38.9561 52.2278 36.9276C50.1996 34.8991 47.4482 33.7595 44.5794 33.7595" fill="#36C5F0"/>
<path d="M113.085 44.5785C113.085 41.7098 111.946 38.9585 109.917 36.93C107.888 34.9015 105.137 33.7619 102.268 33.7619C99.3997 33.7619 96.6484 34.9015 94.6198 36.93C92.5911 38.9585 91.4515 41.7098 91.4515 44.5785V55.3951H102.268C105.137 55.3951 107.888 54.2554 109.917 52.2273C111.946 50.1987 113.085 47.4473 113.085 44.5785Z" fill="#2EB67D"/>
<path d="M84.2403 44.5794V15.7333C84.2403 12.8646 83.1011 10.1133 81.0724 8.08482C79.0438 6.05631 76.2925 4.91667 73.4236 4.91667C70.5552 4.91667 67.8038 6.05631 65.7752 8.08482C63.7466 10.1133 62.6069 12.8646 62.6069 15.7333V44.577C62.6069 47.4457 63.7466 50.1972 65.7752 52.2253C67.8038 54.2539 70.5552 55.3936 73.4236 55.3936C76.2925 55.3936 79.0438 54.2539 81.0724 52.2253C83.1011 50.1972 84.2403 47.4457 84.2403 44.577" fill="#2EB67D"/>
<path d="M73.4191 113.083C76.2875 113.083 79.0389 111.943 81.0675 109.915C83.0961 107.886 84.2358 105.135 84.2358 102.266C84.2358 99.3973 83.0961 96.6459 81.0675 94.6173C79.0389 92.5887 76.2875 91.4495 73.4191 91.4495H62.6024V102.266C62.6024 105.135 63.7421 107.886 65.7702 109.915C67.7989 111.943 70.5502 113.083 73.4191 113.083Z" fill="#ECB22E"/>
<path d="M73.4191 84.2402H102.265C105.134 84.2402 107.885 83.101 109.914 81.0724C111.942 79.0438 113.082 76.2924 113.082 73.4235C113.082 70.5551 111.942 67.8038 109.914 65.7752C107.885 63.7465 105.134 62.6069 102.265 62.6069H73.4191C70.5502 62.6069 67.7989 63.7465 65.7702 65.7752C63.7421 67.8038 62.6024 70.5551 62.6024 73.4235C62.6024 76.2924 63.7421 79.0438 65.7702 81.0724C67.7989 83.101 70.5502 84.2402 73.4191 84.2402Z" fill="#ECB22E"/>
<path d="M4.91666 73.4206C4.91666 76.2895 6.05629 79.0408 8.08481 81.0694C10.1133 83.0976 12.8645 84.2373 15.7333 84.2373C18.6021 84.2373 21.3533 83.0976 23.3818 81.0694C25.4104 79.0408 26.55 76.2895 26.55 73.4206V62.6039H15.7333C12.8645 62.6039 10.1133 63.7436 8.08481 65.7722C6.05629 67.8008 4.91666 70.5522 4.91666 73.4206Z" fill="#E01E5A"/>
<path d="M33.7613 73.4206V102.267C33.7613 105.136 34.9008 107.887 36.9294 109.916C38.9579 111.944 41.7092 113.083 44.5779 113.083C47.4467 113.083 50.1982 111.944 52.2263 109.916C54.2549 107.887 55.3946 105.136 55.3946 102.267V73.4206C55.3946 70.5522 54.2549 67.8008 52.2263 65.7722C50.1982 63.7436 47.4467 62.6039 44.5779 62.6039C41.7092 62.6039 38.9579 63.7436 36.9294 65.7722C34.9008 67.8008 33.7613 70.5522 33.7613 73.4206Z" fill="#E01E5A"/>
</svg>
